HIERARCHY
ROOT Hips
{
	OFFSET -0.001795 -0.223333 0.028219
	CHANNELS 6 Xposition Yposition Zposition Zrotation Yrotation Xrotation 
	JOINT LeftUpLeg
	{
		OFFSET 0.069520 -0.091406 -0.006815
		CHANNELS 3 Zrotation Yrotation Xrotation
		JOINT LeftLeg
		{
			OFFSET 0.034277 -0.375199 -0.004496
			CHANNELS 3 Zrotation Yrotation Xrotation
			JOINT LeftFoot
			{
				OFFSET -0.013596 -0.397961 -0.043693
				CHANNELS 3 Zrotation Yrotation Xrotation
				JOINT LeftToe
				{
					OFFSET 0.026358 -0.055791 0.119288
					CHANNELS 3 Zrotation Yrotation Xrotation
					End Site
					{
						OFFSET 0.000000 0.000000 0.000000
					}
				}
			}
		}
	}
	JOINT RightUpLeg
	{
		OFFSET -0.067670 -0.090522 -0.004320
		CHANNELS 3 Zrotation Yrotation Xrotation
		JOINT RightLeg
		{
			OFFSET -0.038290 -0.382569 -0.008850
			CHANNELS 3 Zrotation Yrotation Xrotation
			JOINT RightFoot
			{
				OFFSET 0.015774 -0.398415 -0.042312
				CHANNELS 3 Zrotation Yrotation Xrotation
				JOINT RightToe
				{
					OFFSET -0.025372 -0.048144 0.123348
					CHANNELS 3 Zrotation Yrotation Xrotation
					End Site
					{
						OFFSET 0.000000 0.000000 0.000000
					}
				}
			}
		}
	}
	JOINT Spine
	{
		OFFSET -0.002533 0.108963 -0.026696
		CHANNELS 3 Zrotation Yrotation Xrotation
		JOINT Spine1
		{
			OFFSET 0.005487 0.135180 0.001092
			CHANNELS 3 Zrotation Yrotation Xrotation
			JOINT Spine2
			{
				OFFSET 0.001457 0.052922 0.025425
				CHANNELS 3 Zrotation Yrotation Xrotation
				JOINT Neck
				{
					OFFSET -0.002778 0.213870 -0.042857
					CHANNELS 3 Zrotation Yrotation Xrotation
					JOINT Head
					{
						OFFSET 0.005152 0.064970 0.051349
						CHANNELS 3 Zrotation Yrotation Xrotation
						End Site
						{
							OFFSET 0.000000 0.000000 0.000000
						}
					}
				}
				JOINT LeftShoulder
				{
					OFFSET 0.078845 0.121749 -0.034090
					CHANNELS 3 Zrotation Yrotation Xrotation
					JOINT LeftArm
					{
						OFFSET 0.090977 0.030469 -0.008868
						CHANNELS 3 Zrotation Yrotation Xrotation
						JOINT LeftForeArm
						{
							OFFSET 0.259612 -0.012772 -0.027456
							CHANNELS 3 Zrotation Yrotation Xrotation
							JOINT LeftHand
							{
								OFFSET 0.249234 0.008986 -0.001171
								CHANNELS 3 Zrotation Yrotation Xrotation
								End Site
								{
									OFFSET 0.000000 0.000000 0.000000
								}
							}
						}
					}
				}
				JOINT RightShoulder
				{
					OFFSET -0.081759 0.118833 -0.038615
					CHANNELS 3 Zrotation Yrotation Xrotation
					JOINT RightArm
					{
						OFFSET -0.096012 0.032551 -0.009143
						CHANNELS 3 Zrotation Yrotation Xrotation
						JOINT RightForeArm
						{
							OFFSET -0.253742 -0.013329 -0.021401
							CHANNELS 3 Zrotation Yrotation Xrotation
							JOINT RightHand
							{
								OFFSET -0.255298 0.007772 -0.005559
								CHANNELS 3 Zrotation Yrotation Xrotation
								End Site
								{
									OFFSET 0.000000 0.000000 0.000000
								}
							}
						}
					}
				}
			}
		}
	}
}
MOTION
Frames: 10
Frame Time: 0.050000
0.000000 0.929251 0.000000 2.705602 10.770359 1.046640 -0.477770 -1.514181 -14.595894 -3.373027 0.035952 11.813825 2.555092 8.856091 8.598371 0.000000 0.000000 0.000000 -3.520361 0.612084 -9.565173 -1.337296 -0.227076 54.272914 -0.162260 -2.558060 5.713050 0.000000 0.000000 0.000000 -2.890338 -0.099286 6.058619 0.503492 -0.290604 0.581810 -5.065933 1.257158 3.116808 5.896287 -1.572919 -16.396021 0.000000 0.000000 0.000000 -24.632083 -14.968307 3.624157 -35.533081 -25.568158 3.808397 15.154849 -60.981993 -8.074285 0.000000 0.000000 0.000000 26.273242 3.532046 2.453167 42.829557 10.000620 -1.566699 11.283152 58.691370 10.134022 0.000000 0.000000 0.000000 
0.020931 0.932422 0.043097 2.027265 10.532015 1.121712 -0.982347 -0.939169 -9.447483 -2.801659 0.067268 7.962520 2.811457 8.349672 6.096916 0.000000 0.000000 0.000000 -2.445891 1.100633 -16.649613 0.213654 -1.124913 54.144139 -3.424565 -9.142219 2.690423 0.000000 0.000000 0.000000 -2.053594 -0.123075 5.352099 1.579065 -0.794724 0.338356 -5.568818 -2.452385 3.748013 4.101880 -0.676644 -17.939680 0.000000 0.000000 0.000000 -24.024189 -15.951612 5.592175 -35.260869 -30.773559 4.840196 27.541328 -59.482801 -14.242639 0.000000 0.000000 0.000000 24.527786 3.224631 0.982470 45.027748 8.211320 -1.814740 14.691460 59.370895 11.536380 0.000000 0.000000 0.000000 
0.040102 0.933310 0.087351 1.061352 7.860898 0.020310 -1.542427 -0.372942 -4.000680 -1.593177 -0.022482 6.108534 4.278884 10.113446 4.039397 0.000000 0.000000 0.000000 -1.379903 1.751042 -23.795079 3.453490 -2.055953 50.173870 -5.450907 -13.776850 2.737902 0.000000 0.000000 0.000000 -0.201447 -0.304269 7.209319 2.267796 -0.864728 -3.021640 -6.676216 -2.190133 6.662748 3.827469 -0.949754 -15.514717 0.000000 0.000000 0.000000 -22.207069 -19.953250 8.342740 -31.835462 -35.355146 5.047478 33.252705 -54.650254 -15.625691 0.000000 0.000000 0.000000 24.466539 1.210836 -0.444276 44.692212 6.519477 -2.557707 17.437212 64.024391 14.372499 0.000000 0.000000 0.000000 
0.057575 0.929980 0.133637 0.728941 5.529039 -0.420954 -2.318164 0.160732 1.107300 -1.322588 0.027334 3.851915 5.537011 11.829493 2.071855 0.000000 0.000000 0.000000 0.107161 2.434817 -27.217365 5.025855 -1.685212 38.279929 -4.693771 -10.985689 -4.124581 0.000000 0.000000 0.000000 1.116763 -0.438626 8.085258 2.593080 -1.078618 -2.388021 -5.771302 -4.863595 5.478343 1.054891 0.501161 -17.389411 0.000000 0.000000 0.000000 -22.015665 -19.444608 9.397391 -29.011427 -37.999889 4.804610 38.848771 -52.509875 -17.068601 0.000000 0.000000 0.000000 21.171858 0.829749 -1.756815 46.837825 4.897153 -2.694501 18.887929 66.836811 14.759967 0.000000 0.000000 0.000000 
0.073769 0.923093 0.182491 1.198803 3.873178 -0.436313 -4.910008 0.640725 4.357833 0.536645 -0.237592 4.316827 6.711369 13.694929 0.202185 0.000000 0.000000 0.000000 1.601635 2.986995 -28.296963 5.412446 -1.046639 22.652209 -2.816615 -6.859640 -0.826031 0.000000 0.000000 0.000000 0.967818 -0.421520 8.137979 3.500259 -1.517101 -2.274643 -5.656454 -7.008986 5.083118 -0.804908 1.309147 -18.087565 0.000000 0.000000 0.000000 -20.636251 -20.399122 10.760309 -26.564414 -40.874724 4.672897 40.482736 -46.481626 -15.109353 0.000000 0.000000 0.000000 19.894746 -0.264642 -3.052680 46.338913 2.662286 -3.202793 26.254718 72.077618 20.470775 0.000000 0.000000 0.000000 
0.087956 0.916282 0.235313 1.506485 1.308095 0.215196 -6.771395 0.996346 6.025453 0.955203 -0.388270 6.445253 8.040915 16.471072 0.240601 0.000000 0.000000 0.000000 3.120291 3.602874 -29.054667 4.638631 -0.543978 11.979326 -1.087683 -5.949219 8.691890 0.000000 0.000000 0.000000 2.054278 -0.415545 6.762575 4.082330 -1.925685 -0.527976 -6.815811 -8.976941 2.591671 -0.562656 0.865660 -17.091428 0.000000 0.000000 0.000000 -17.815576 -19.055477 10.263908 -25.250154 -41.744751 4.626156 40.299178 -44.340485 -13.843716 0.000000 0.000000 0.000000 22.149326 0.141816 -4.163392 44.207340 1.132186 -3.011012 30.629506 73.934638 23.259698 0.000000 0.000000 0.000000 
0.099926 0.913044 0.293050 1.099055 0.690714 1.096419 -5.628062 0.965383 6.245376 -1.767114 -0.030926 11.179754 8.031504 16.690159 2.323058 0.000000 0.000000 0.000000 4.353356 3.976011 -29.394894 2.553827 -0.114323 9.671754 -0.406512 -5.950772 12.837305 0.000000 0.000000 0.000000 3.385449 -0.317094 3.944727 5.495042 -2.510702 -1.426886 -7.446473 -9.784512 3.050522 -1.841278 1.510839 -17.151037 0.000000 0.000000 0.000000 -17.353400 -18.136462 9.949242 -23.373417 -41.817965 4.058395 37.387764 -42.517673 -11.926329 0.000000 0.000000 0.000000 22.247062 -1.093731 -5.116997 41.609569 -0.630559 -3.320990 32.509862 71.230520 23.314543 0.000000 0.000000 0.000000 
0.108380 0.916364 0.352946 0.438814 -0.344107 0.141794 -2.405510 0.557935 4.675446 -6.341007 1.228487 22.272250 5.401687 13.148544 10.967258 0.000000 0.000000 0.000000 5.454716 4.022604 -27.464702 2.020879 0.101058 13.790153 -0.420729 -4.323812 7.522991 0.000000 0.000000 0.000000 4.614674 -0.270088 2.852196 5.763871 -2.848422 0.876070 -6.120696 -9.276087 0.422004 -2.029347 1.609265 -14.680723 0.000000 0.000000 0.000000 -16.944598 -18.234848 9.866405 -21.055369 -42.272691 3.662414 35.742995 -39.344435 -10.419152 0.000000 0.000000 0.000000 21.659982 -1.938328 -5.521746 40.901116 -3.355375 -3.948685 31.757481 68.740189 21.581094 0.000000 0.000000 0.000000 
0.113669 0.924698 0.407534 -0.963460 -0.179579 -1.715980 2.118473 0.005620 0.295565 -9.194843 2.894456 37.083702 0.717740 8.386598 21.987723 0.000000 0.000000 0.000000 7.013123 3.709136 -23.390245 0.891074 0.446460 16.611520 -0.407519 -2.620363 3.401820 0.000000 0.000000 0.000000 5.632874 -0.369985 3.976980 6.236987 -3.071009 0.496926 -5.492759 -9.124651 -0.056015 -0.858402 0.851975 -11.819693 0.000000 0.000000 0.000000 -16.328461 -17.141144 9.055438 -18.075188 -43.693981 3.098417 32.424249 -36.117547 -8.489291 0.000000 0.000000 0.000000 21.645245 -3.006826 -6.051158 40.692610 -5.020473 -4.447384 26.509260 62.154426 15.797783 0.000000 0.000000 0.000000 
0.118963 0.933730 0.453263 -1.570690 -1.799276 -2.164864 5.251328 -0.269117 -5.620438 -11.099758 4.889084 45.820208 -1.060034 7.883650 30.309950 0.000000 0.000000 0.000000 7.598331 3.104650 -18.996401 0.382172 0.593200 15.713209 0.439290 0.770800 0.619522 0.000000 0.000000 0.000000 5.568779 -0.416758 4.673942 6.400210 -3.124152 0.259891 -4.363429 -6.977893 -0.367809 -0.481280 0.653836 -10.546771 0.000000 0.000000 0.000000 -15.369230 -17.775945 8.923663 -13.653867 -42.771003 1.738754 30.774334 -30.895756 -6.854199 0.000000 0.000000 0.000000 22.138138 -3.165855 -5.954102 40.793610 -5.691731 -4.741867 21.406671 56.112197 11.521635 0.000000 0.000000 0.000000 
